<svg width="40" height="40" viewBox="0 0 40 40" fill="none" xmlns="http://www.w3.org/2000/svg">
<path d="M34.1421 5.85786C30.3646 2.0804 25.3421 0 20 0C14.6579 0 9.63539 2.0804 5.85786 5.85786C2.0804 9.63539 0 14.6579 0 20C0 25.3421 2.0804 30.3646 5.85786 34.1421C9.63539 37.9196 14.6578 40 20 40C25.3422 40 30.3646 37.9196 34.1421 34.1421C37.9196 30.3646 40 25.3422 40 20C40 14.6578 37.9196 9.63539 34.1421 5.85786ZM33.285 33.285C29.7365 36.8336 25.0184 38.7879 20 38.7879C14.9816 38.7879 10.2635 36.8336 6.71499 33.285C3.16638 29.7365 1.21212 25.0184 1.21212 20C1.21212 14.9816 3.16638 10.2635 6.71499 6.71499C10.2635 3.16638 14.9816 1.21212 20 1.21212C25.0184 1.21212 29.7365 3.16638 33.285 6.71499C36.8336 10.2635 38.7879 14.9816 38.7879 20C38.7879 25.0184 36.8336 29.7365 33.285 33.285Z" fill="#4CAF50"/>
<path d="M32.3136 7.68639C29.0246 4.39726 24.6515 2.58586 20 2.58586C15.3485 2.58586 10.9754 4.39726 7.68629 7.68639C4.39724 10.9754 2.58585 15.3485 2.58585 20C2.58585 24.6515 4.39724 29.0246 7.68629 32.3137C10.9754 35.6028 15.3485 37.4141 20 37.4141C24.6515 37.4141 29.0246 35.6028 32.3136 32.3136C35.6027 29.0245 37.4141 24.6515 37.4141 20C37.4141 15.3485 35.6027 10.9754 32.3136 7.68639ZM20.606 36.1896V34.8687C20.606 34.534 20.3347 34.2626 20 34.2626C19.6653 34.2626 19.3939 34.534 19.3939 34.8687V36.1895C10.9412 35.877 4.12298 29.0588 3.81049 20.6061H5.1313C5.46601 20.6061 5.73736 20.3347 5.73736 20C5.73736 19.6653 5.46601 19.3939 5.1313 19.3939H3.81049C4.12298 10.9412 10.9412 4.12299 19.3939 3.81051V5.13132C19.3939 5.46602 19.6653 5.73738 20 5.73738C20.3347 5.73738 20.606 5.46602 20.606 5.13132V3.81051C29.0588 4.12299 35.877 10.9412 36.1895 19.3939H34.8687C34.534 19.3939 34.2626 19.6653 34.2626 20C34.2626 20.3347 34.534 20.6061 34.8687 20.6061H36.1895C35.877 29.0588 29.0588 35.877 20.606 36.1896Z" fill="#4CAF50"/>
<path d="M30.9899 19.3939H24.7345L28.9329 11.892C29.0655 11.6552 29.0244 11.3593 28.8326 11.1674C28.6407 10.9756 28.3447 10.9345 28.1081 11.0671L20.6061 15.2663V9.0101C20.6061 8.67539 20.3347 8.40404 20 8.40404C19.6653 8.40404 19.394 8.67539 19.394 9.0101V15.9446L18.2387 16.5913C18.159 16.6326 18.0806 16.6759 18.0043 16.7225L17.9881 16.7316C17.9642 16.745 17.942 16.7602 17.9207 16.7762C17.8628 16.8137 17.8059 16.8524 17.7502 16.8929L15.257 14.3997C15.0203 14.163 14.6365 14.163 14.3999 14.3997C14.1632 14.6364 14.1632 15.02 14.3999 15.2567L16.8932 17.75C16.7818 17.9034 16.6817 18.0652 16.5936 18.2344C16.5904 18.2398 16.5868 18.2447 16.5838 18.2502L15.9436 19.3939H9.01011C8.67541 19.3939 8.40405 19.6653 8.40405 20C8.40405 20.3347 8.67541 20.6061 9.01011 20.6061H15.2652L11.0671 28.108C10.9346 28.3447 10.9756 28.6406 11.1674 28.8325C11.284 28.9492 11.4392 29.0101 11.5961 29.0101C11.6972 29.0101 11.799 28.9848 11.8918 28.9329L19.394 24.737V30.9899C19.394 31.3246 19.6653 31.596 20 31.596C20.3347 31.596 20.6061 31.3246 20.6061 30.9899V24.059L21.8474 23.3647C21.8564 23.3596 21.8648 23.3538 21.8735 23.3483C22.0038 23.2751 22.1295 23.1944 22.2499 23.107L24.7431 25.6002C24.8614 25.7186 25.0166 25.7778 25.1717 25.7778C25.3267 25.7778 25.4819 25.7186 25.6002 25.6002C25.8369 25.3636 25.8369 24.9798 25.6002 24.7432L23.1069 22.2499C23.2207 22.0932 23.3227 21.9278 23.4121 21.7545C23.4147 21.7501 23.418 21.7463 23.4205 21.7417L24.0561 20.6061H30.9899C31.3246 20.6061 31.596 20.3347 31.596 20C31.596 19.6653 31.3246 19.3939 30.9899 19.3939V19.3939ZM18.6186 17.7678L18.8228 17.6534C19.1771 17.4749 19.5769 17.3737 20 17.3737C21.4481 17.3737 22.6263 18.5518 22.6263 20C22.6263 21.4482 21.4481 22.6263 20 22.6263C18.5519 22.6263 17.3738 21.4482 17.3738 20C17.3738 19.0584 17.8721 18.2314 18.6186 17.7678ZM23.6576 18.8363C23.2807 17.6545 22.3461 16.7198 21.1645 16.3428L26.8268 13.1734L23.6576 18.8363V18.8363ZM16.3424 21.1635C16.7195 22.3465 17.6557 23.2821 18.839 23.6585L13.1725 26.8279L16.3424 21.1635Z" fill="#4CAF50"/>
<path d="M20 21.2525C20.6907 21.2525 21.2525 20.6907 21.2525 20C21.2525 19.3093 20.6907 18.7475 20 18.7475C19.3093 18.7475 18.7475 19.3093 18.7475 20C18.7475 20.6907 19.3093 21.2525 20 21.2525ZM20 19.9596C20.0223 19.9596 20.0404 19.9777 20.0404 20C20.0404 20.0223 20.0223 20.0404 20 20.0404C19.9777 20.0404 19.9596 20.0223 19.9596 20C19.9596 19.9777 19.9777 19.9596 20 19.9596Z" fill="#4CAF50"/>
</svg>
