<svg width="40" height="40" viewBox="0 0 40 40" fill="none" xmlns="http://www.w3.org/2000/svg">
<g clip-path="url(#clip0)">
<path d="M19.5974 31.2319C19.8143 31.2319 20.023 31.1401 20.1732 30.9815C20.5904 30.5476 30.412 20.1585 30.412 11.9892C30.412 5.8142 25.5638 0.79068 19.5974 0.79068C13.6309 0.79068 8.78275 5.81412 8.78275 11.9892C8.78275 20.2003 18.6044 30.5477 19.0216 30.9899C19.1718 31.1401 19.3805 31.2319 19.5974 31.2319ZM19.5974 2.39285C24.6793 2.39285 28.8099 6.69868 28.8099 11.9892C28.8099 18.4396 21.7002 26.8927 19.5974 29.2459C17.4945 26.8927 10.3849 18.4813 10.3849 11.9892C10.3849 6.69868 14.5155 2.39285 19.5974 2.39285Z" fill="#4CAF50"/>
<path d="M24.8044 12.4064C24.8044 9.52751 22.4763 7.19936 19.5974 7.19936C16.7185 7.19936 14.3904 9.52751 14.3904 12.4064C14.3904 15.2853 16.7185 17.6134 19.5974 17.6134C22.468 17.6134 24.8044 15.2769 24.8044 12.4064ZM15.9925 12.4064C15.9925 10.4121 17.6031 8.80152 19.5974 8.80152C21.5917 8.80152 23.2023 10.4121 23.2023 12.4064C23.2023 14.4007 21.5917 16.0113 19.5974 16.0113C17.6031 16.0113 15.9925 14.4007 15.9925 12.4064Z" fill="#4CAF50"/>
<path d="M39.9249 38.0661L34.3173 26.0665C34.1838 25.7828 33.9001 25.6075 33.5913 25.6075H26.4316C26.0061 25.6075 25.6389 25.9246 25.6055 26.3502C25.5805 26.8092 25.9393 27.193 26.3982 27.193H33.1073L37.9806 37.6237H32.7902C32.5732 35.6961 31.213 34.3527 28.7347 33.6267C26.3899 32.9424 23.1605 32.7839 19.7391 32.6253C18.4875 32.5669 17.1941 32.5002 15.8839 32.4167C14.2401 32.2999 12.1205 31.8826 11.4195 30.5225C10.8187 29.3625 11.3778 27.8855 11.7033 27.193H12.7547C13.1803 27.193 13.5474 26.8759 13.5808 26.4503C13.6058 25.9913 13.247 25.6075 12.7881 25.6075H5.52006C5.19462 25.6075 4.89421 25.8078 4.77741 26.1166L0.0542997 38.1162C-0.104274 38.5251 0.0959968 38.9924 0.50491 39.151C0.596674 39.1844 0.69681 39.2094 0.796946 39.2094H39.1989C39.6412 39.2094 40 38.8505 40 38.4083C40 38.2914 39.975 38.1746 39.9249 38.0661ZM1.92347 37.6239L6.02903 27.193H9.98438C9.6005 28.2528 9.27506 29.83 10.0094 31.2485C10.8522 32.8757 12.7965 33.802 15.7922 34.0106C17.1107 34.1024 18.4124 34.1608 19.6809 34.2193C23.002 34.3779 26.1396 34.5281 28.3009 35.1622C30.0783 35.6795 30.9711 36.4473 31.1798 37.6239H1.92347Z" fill="#4CAF50"/>
</g>
<defs>
<clipPath id="clip0">
<rect width="40" height="40" fill="white"/>
</clipPath>
</defs>
</svg>
