<svg width="40" height="40" viewBox="0 0 40 40" fill="none" xmlns="http://www.w3.org/2000/svg">
<g clip-path="url(#clip0)">
<path d="M8.94947 37.5601H0.585999V27.7984H8.94955C9.22488 27.7984 9.44803 28.0215 9.44803 28.2969V37.0616C9.44795 37.337 9.2248 37.5601 8.94947 37.5601V37.5601Z" fill="#FDF6EC"/>
<path d="M9.44834 35.4891V37.0619C9.44834 37.3369 9.22488 37.5604 8.94986 37.5604H0.585846V35.9876H8.94986C9.22488 35.9876 9.44834 35.7649 9.44834 35.4891Z" fill="#FCEAD0"/>
<path d="M26.4719 8.89955H21.0148L19.4651 32.6045H28.0217L26.4719 8.89955Z" fill="#A6E7F0"/>
<path d="M28.0302 32.7316L26.5123 32.6044L24.963 8.89923L26.4801 9.02635L28.0302 32.7316Z" fill="#6BD9E7"/>
<path d="M21.0154 3.53461V8.89954H26.4748V5.47096C26.4748 5.25266 26.6518 5.07569 26.8701 5.07569H39.414V0.589355L23.17 1.28567C21.9654 1.33731 21.0154 2.32888 21.0154 3.53461V3.53461Z" fill="#CBC4CC"/>
<path d="M25.3583 5.07547H26.8702C26.6522 5.07547 26.4748 5.25283 26.4748 5.47082V8.89924H24.963V5.47082C24.963 5.25283 25.1395 5.07547 25.3583 5.07547V5.07547Z" fill="#B5ADB6"/>
<path d="M39.4142 0.589142V5.07547H37.9024V0.653991L39.4142 0.589142Z" fill="#B5ADB6"/>
<path d="M37.1991 29.8772C36.6931 28.5484 35.179 27.9125 33.876 28.4816L28.3503 30.8948C28.3503 29.9493 27.5838 29.1828 26.6384 29.1828H19.9172C19.8287 29.1828 19.7451 29.1424 19.6901 29.073L19.5832 28.9383C18.7392 28.0078 17.5948 27.4362 16.3346 27.4362C15.0741 27.4362 13.9296 28.0079 13.0855 28.9387C13.0304 29.0015 12.951 29.0376 12.8675 29.0376H9.44794V36.5541H12.0876C12.3242 36.5541 12.5602 36.5696 12.7942 36.6003C13.1903 36.6525 13.5775 36.7575 13.9523 36.8955L18.0299 39.0145C18.5191 39.1946 19.0272 39.3225 19.5456 39.3769C20.5191 39.4789 21.5084 39.3531 22.4257 38.9857C22.5671 38.9291 31.6279 34.9211 35.8801 33.0397C37.091 32.5041 37.6703 31.1145 37.1991 29.8772Z" fill="#FED2A4"/>
<path d="M28.35 30.8949C28.35 31.3676 28.1586 31.7958 27.8484 32.1052C27.539 32.4154 27.1108 32.6068 26.6381 32.6068H18.1111V32.3788C18.1111 31.6706 18.6852 31.0965 19.3934 31.0965H26.638C27.1107 31.0965 27.5389 30.9051 27.8483 30.5949C27.9803 30.4628 28.0913 30.3097 28.1749 30.1402C28.2875 30.3675 28.35 30.6238 28.35 30.8949V30.8949Z" fill="#FFBD86"/>
<path d="M35.8803 33.0396C31.6276 34.921 22.5675 38.9292 22.426 38.9855C21.5088 39.3535 20.5196 39.4793 19.5461 39.3769C19.0273 39.323 18.5194 39.1949 18.0303 39.0144L13.9526 36.8954C13.5776 36.7579 13.1901 36.6525 12.7947 36.6001C12.5603 36.5696 12.3244 36.554 12.0876 36.554H9.44833V35.007H12.0806C12.3173 35.007 12.5533 35.0226 12.7869 35.0531C13.183 35.1054 13.5706 35.2109 13.9448 35.3484L18.0225 37.4674C18.5116 37.6479 19.0203 37.776 19.5383 37.8299C20.5118 37.9323 21.501 37.8065 22.4182 37.4385C22.5596 37.3822 31.6206 33.374 35.8725 31.4926C36.5468 31.1949 37.025 30.6316 37.2352 29.9776C37.6383 31.1895 37.0586 32.5193 35.8803 33.0396V33.0396Z" fill="#FFBD86"/>
<path d="M21.9883 18.3263L21.7907 23.8037C21.779 24.1271 22.0317 24.3987 22.3552 24.4104C22.3624 24.4107 22.3695 24.4108 22.3767 24.4108C22.6905 24.4108 22.9505 24.1622 22.9619 23.846L23.1595 18.3687C23.1712 18.0452 22.9185 17.7736 22.595 17.7619C22.2739 17.7486 22.0001 18.0028 21.9883 18.3263V18.3263Z" fill="#4CAF50"/>
<path d="M23.5394 11.3739V12.9242C23.5394 13.2478 23.8017 13.5102 24.1254 13.5102C24.4491 13.5102 24.7114 13.2478 24.7114 12.9242V11.3739C24.7114 11.0503 24.4491 10.7879 24.1254 10.7879C23.8017 10.7879 23.5394 11.0503 23.5394 11.3739V11.3739Z" fill="#4CAF50"/>
<path d="M39.8194 0.166773C39.704 0.0562159 39.5486 -0.00253927 39.3889 0.00441447L23.1449 0.700804C21.6223 0.766122 20.4295 2.01115 20.4295 3.53519V8.87129L19.1919 27.801C18.3469 27.1831 17.3618 26.8509 16.3346 26.8509C14.9906 26.8509 13.7183 27.4185 12.7382 28.4524H10.0341V28.2975C10.0341 27.6995 9.54756 27.2131 8.94961 27.2131H4.87629C4.55259 27.2131 4.2903 27.4754 4.2903 27.799C4.2903 28.1227 4.55259 28.385 4.87629 28.385H8.86203V36.9748H1.17198V28.385H2.13706C2.46076 28.385 2.72305 28.1226 2.72305 27.799C2.72305 27.4753 2.46076 27.213 2.13706 27.213H0.585989C0.262289 27.213 0 27.4753 0 27.799V37.5607C0 37.8843 0.262289 38.1467 0.585989 38.1467H8.94954C9.51998 38.1467 9.98783 37.7037 10.0299 37.1439C10.9286 37.1494 12.5674 37.1621 12.7179 37.1819C13.0372 37.2239 13.3641 37.3063 13.7159 37.4336L17.7598 39.5351C17.7817 39.5465 17.8043 39.5565 17.8275 39.565C18.3858 39.7706 18.9433 39.9035 19.4847 39.9603C19.7201 39.985 19.9559 39.9972 20.1911 39.9972C21.0364 39.9972 21.8729 39.839 22.6436 39.5303C22.7835 39.4743 30.0479 36.2615 36.1172 33.5762C37.6132 32.9143 38.3291 31.1981 37.7467 29.6692C37.4445 28.8753 36.8465 28.257 36.0633 27.928C35.2801 27.5991 34.4201 27.6051 33.6414 27.9452L28.782 30.0674C28.6906 29.8317 28.5605 29.6158 28.401 29.425L27.4941 15.5521C27.4729 15.2291 27.1922 14.984 26.871 15.0056C26.548 15.0267 26.3034 15.3056 26.3245 15.6285L27.1765 28.6612C27.0038 28.6196 26.8236 28.5973 26.6383 28.5973H20.3143L21.5638 9.48595H25.9231L26.1482 12.9303C26.1694 13.2533 26.4501 13.499 26.7713 13.4768C27.0943 13.4558 27.3389 13.1768 27.3178 12.8539C27.3178 12.8539 27.061 8.90488 27.061 8.89996V5.66226H39.4141C39.7378 5.66226 40.0001 5.39989 40.0001 5.07627V0.589935C40 0.430155 39.9348 0.277329 39.8194 0.166773V0.166773ZM26.6383 29.7695C27.2556 29.7695 27.7585 30.2688 27.7642 30.8848C27.7641 30.892 27.7641 30.8992 27.7642 30.9064C27.7583 31.5221 27.2554 32.0213 26.6383 32.0213H18.6965C18.3728 32.0213 18.1105 32.2837 18.1105 32.6073C18.1105 32.9309 18.3728 33.1933 18.6965 33.1933H26.6383C27.7695 33.1933 28.7123 32.3717 28.9016 31.294L34.1105 29.0192C34.5923 28.8087 35.1246 28.8049 35.6096 29.0085C36.0943 29.2121 36.4644 29.5948 36.6515 30.0863C37.0118 31.0326 36.5689 32.0948 35.6431 32.5044C27.4022 36.1505 22.378 38.3709 22.208 38.4423C21.399 38.7663 20.4998 38.8882 19.6068 38.7947C19.1729 38.7492 18.7222 38.6426 18.2667 38.4777L14.2227 36.3762C14.2008 36.3648 14.1782 36.3548 14.155 36.3463C13.7076 36.1816 13.2876 36.0749 12.8707 36.02C12.6119 35.9859 12.3484 35.9687 12.0878 35.9687H10.0341V29.6243H12.8676C13.1179 29.6243 13.3561 29.5172 13.5222 29.3304C14.2881 28.4871 15.2867 28.0228 16.3347 28.0228C17.3779 28.0228 18.3722 28.4829 19.1366 29.3187L19.2311 29.4379C19.3983 29.6486 19.6484 29.7695 19.9173 29.7695H26.6383ZM38.828 4.49028H26.8701C26.329 4.49028 25.8888 4.93047 25.8888 5.47154V8.31413H21.6013V3.53519C21.6013 2.64074 22.3014 1.91005 23.195 1.87169L38.8279 1.20155V4.49028H38.828Z" fill="#4CAF50"/>
</g>
<defs>
<clipPath id="clip0">
<rect width="40" height="40" fill="white"/>
</clipPath>
</defs>
</svg>
